<svg width="512" height="388" viewBox="0 0 512 388" fill="none" xmlns="http://www.w3.org/2000/svg">
<path d="M249.86 205.948C279.98 201.153 273.439 226.131 279.658 230.602C290.412 238.333 302.515 236.018 295.004 259.487C289.54 276.559 269.012 265.284 260.654 268.724L260.18 270.294C260.994 273.167 265.273 277.964 267.891 280.21C282.22 292.502 303.531 284.551 308.533 267.015C310.896 258.73 295.928 251.855 305.559 241.82C311.296 235.843 316.449 238.39 321.72 243.269C331.398 253.154 313.944 258.369 314.66 267.397C314.951 273.991 316.06 280.2 320.951 285.224C324.33 288.675 328.946 290.634 333.775 290.666C342.353 290.781 348.308 285.564 354.039 279.985C344.793 280.523 336.733 280.675 331.32 271.513C328.823 267.352 328.104 262.363 329.326 257.666C331.251 250.49 335.693 247.435 341.737 243.991C344.212 244.044 347.737 244.531 350.28 244.803C357.138 236.378 366.388 227.627 378.817 235.335C384.614 238.93 385.308 244.858 386.318 251.196C390.248 256.605 399.781 260.69 399.01 268.455C396.412 294.639 371.579 277.345 366.939 281.509C367.004 285.634 372.134 289.972 374.639 293.146C379.75 299.619 396.566 300.807 402.546 295.474C407.54 291.021 402.778 279.684 402.521 273.448C402.098 263.201 415.532 262.172 420.924 268.39C429.57 278.663 413.75 284.762 413.154 294.688C412.715 302.011 415.374 307.701 423.647 308.188C431.322 308.509 434.885 305.908 440.445 300.881C433.837 298.314 428.5 297.066 426.093 289.017C425.112 285.72 425.561 282.162 427.33 279.211C430.53 273.762 435.284 272.119 440.96 270.568C444.864 271.846 447.721 272.454 451.753 273.288C458.19 269.875 461.375 263.319 469.539 264.861C472.893 265.525 475.842 267.502 477.731 270.353C484.094 279.985 475.834 286.786 468.529 291.44C466.065 285.25 463.813 279.464 456.063 278.736C453.193 278.468 450.339 279.388 448.165 281.281C439.981 288.492 446.342 297.632 451.962 303.533C447.003 308.975 441.782 312.78 436.304 319.096C444.801 321.061 447.238 321.759 454.305 326.772C451.504 329.554 449.125 331.841 445.777 334.006C438.72 338.57 428.498 340.784 424.388 348.7C416.478 363.93 448.536 370.908 440.034 386.385C436.711 389.132 430.855 387.697 427.039 386.558C375.908 371.284 323.693 365.059 270.479 363.856C206.998 363.284 145.717 368.308 84.1839 384.725C82.0502 385.294 78.9873 385.194 76.8779 384.689C65.3132 376.868 86.5614 363.726 89.5748 354.551C95.3635 336.928 58.1746 336.769 62.4192 324.771C66.2377 321.132 72.5075 319.874 77.6004 318.561C74.4541 314.549 66.3305 307.91 61.9908 303.363C65.6709 297.312 69.5939 291.866 66.8541 284.334C64.7015 278.42 58.8767 276.472 53.2468 278.913C47.0934 281.581 46.0313 285.677 43.7411 291.51C38.5641 286.491 34.1229 282.769 28.5371 278.185C43.7757 260.166 43.2796 261.484 60.633 271.887C62.6551 273.099 67.6073 270.731 70.0562 269.716C81.3372 271.935 90.7989 281.095 83.8231 292.682L83.566 293.103C80.3065 298.481 75.0839 297.608 73.6758 300.759C80.2625 315.711 105.486 305.222 98.9115 289.22C96.2401 282.718 87.6982 281.578 89.0803 272.661C90.372 264.325 102.605 260.772 107.512 267.76C111.765 273.844 106.584 280.012 105.554 286.196C104.643 291.616 109.658 294.878 113.911 296.848C124.596 301.795 135.467 296.62 141.544 287.254C142.836 285.261 144.453 283.284 144.778 280.891C140.395 278.543 132.445 284.566 127.777 284.121C118.466 283.233 112.312 272.879 113.288 264.104C112.182 256.875 125.79 253.215 126.525 250.424C129.114 240.574 131.083 230.168 145.184 231.722C152.984 232.582 156.875 237.577 161.899 244.35C165.368 243.842 169.388 242.987 172.681 244.647C182.037 249.367 183.177 262.06 179.112 270.698C174.405 280.703 168.366 277.715 160.1 280.563C160.943 284.372 172.481 291.99 176.799 290.794C182.686 289.164 189.812 285.134 193.463 280.189C202.549 267.885 190.971 260.969 188.291 249.945C187.173 244.787 192.982 238.993 197.72 238.753C206.241 238.319 211.822 248.26 207.435 255.382C205.359 258.751 202.362 260.477 202.669 265.002C203.95 283.934 231.456 292.891 244.156 278.849C246.637 276.096 249.581 272.632 249.355 268.872C244.643 264.976 232.656 272.78 225.349 268.801C213.533 262.366 211.153 242.897 221.687 234.339C224.397 232.444 232.853 231.146 234.089 227.968C239.405 214.3 232.593 211.552 249.86 205.948ZM272.255 313.615C307.396 314.317 338.965 316.16 373.907 321.957C385.872 323.861 397.781 326.094 409.621 328.656C415.677 330.021 432.331 335.145 437.316 334.066L437.344 333.165C432.73 329.112 416.864 326.511 410.22 325.036C359.037 313.668 297.02 306.743 244.361 308.261C193.9 309.74 145.28 314.293 96.0514 325.939C91.8476 326.933 79.1964 329.334 76.51 331.472L76.2757 332.606C78.4385 334.409 83.0424 332.961 85.772 332.234C147.105 315.882 209.253 312.989 272.255 313.615ZM285.491 354.478C317.243 355.595 348.884 358.848 380.199 364.216C387.059 365.459 423.14 374.481 426.371 373.247L426.351 372.05C422.599 369.152 409.263 366.444 403.82 365.152C345.029 351.199 290.543 349.086 230.576 349.938C190.579 351.409 152.639 354.94 113.446 363.436C106.446 364.953 92.0764 365.929 86.8876 370L86.184 371.349C88.4702 372.734 95.1252 371.469 97.8289 370.806C160.493 355.452 220.741 353.428 285.491 354.478ZM253.875 343.163C261.981 343.001 271.278 343.408 277.364 337.055C282.035 332.18 281.949 325.139 276.723 320.682C271.838 316.518 263.79 316.051 257.534 316.155C250.047 316.141 238.968 315.755 234.174 322.067C222.314 337.678 243.682 342.975 253.875 343.163ZM239.919 246.601C241.987 257.925 245.914 262.947 257.857 263.731C279.479 257.577 272.348 234.235 254.244 230.134C247.598 232.997 244.15 235.289 241.369 242.277C240.812 243.692 240.327 245.136 239.919 246.601ZM360.832 252.619C356.792 252.935 353.233 255.399 351.515 259.068C349.796 262.738 350.182 267.048 352.525 270.354C354.868 273.661 358.807 275.452 362.839 275.047C368.978 274.428 373.476 268.985 372.925 262.84C372.376 256.695 366.983 252.137 360.832 252.619ZM355.553 305.409C361.942 306.533 369.073 307.959 375.471 308.618C371.716 304.317 362.707 293.405 358.963 289.771C350.289 295.601 344.826 298.356 335.258 302.698C342.394 303.169 348.503 304.243 355.553 305.409ZM152.089 274.184C158.305 273.179 162.511 267.301 161.455 261.093C160.399 254.885 154.487 250.727 148.288 251.833C142.159 252.927 138.06 258.757 139.104 264.894C140.147 271.031 145.944 275.178 152.089 274.184ZM136.91 308.763C143.619 307.582 152.035 305.887 158.662 305.184L174.444 302.864C167.738 299.408 161.59 296.118 155.79 291.228C154.792 290.387 153.745 289.498 152.563 288.954C147.751 295.249 141.084 302.671 136.91 308.763ZM201.111 300.116C218.514 298.637 234.982 298.581 252.405 298.498C261.709 298.454 273.171 298.776 282.23 297.855C273.877 294.755 265.924 291.503 259.145 285.429C257.974 284.38 256.556 282.775 255.052 282.414C235.53 300.242 226.526 298.464 205.05 289.532C200.012 287.437 187.831 298.26 183.073 301.96C189.072 301.212 195.085 300.597 201.111 300.116ZM182.892 331.823C176.9 329.165 163.309 324.142 156.899 323.682C149.177 327.323 140.521 334.264 133.701 339.554C140.328 342.227 153.073 347.84 160.066 347.838C168.567 342.924 175.432 338.296 182.892 331.823ZM286.123 297.966C294.345 298.692 302.561 299.477 310.772 300.323L328.617 301.838C322.478 297.667 313.916 291.429 307.076 288.978C298.635 293.359 294.071 294.383 286.123 297.966ZM378.098 339.548C373.444 336.067 357.736 324.41 352.662 324.613C343.747 326.723 335.597 328.825 326.871 331.682C334.698 337.048 345.178 345.075 354.021 347.819C362.249 345.691 370.299 342.925 378.098 339.548Z" fill="white"/>
<path d="M282.461 117.77C299.104 113.041 314.49 100.872 330.909 97.6197C349.983 93.8413 351.43 96.6858 362.363 109.443C366.84 114.667 377.592 105.123 382.55 109.323C388.559 114.107 381.768 119.294 382.971 125.419C385.556 138.583 402.738 129.895 404.892 141.272C403.881 145.447 394.756 146.461 392.849 156.753C390.435 169.776 418.143 167.162 406.438 179.338C402.285 183.658 389.515 184.491 393.675 196.202C395.634 201.716 400.053 201.734 399.236 208.803C396.29 215.377 386.129 213.718 384.448 217.217C378.122 230.389 377.032 230.011 360.071 225.591C371.314 198.408 389.886 147.7 364.5 123.738C342.073 107.665 311.594 124.543 287.038 129.408C256.347 135.489 234.765 133.168 204.838 123.602C196.066 120.797 180.689 116.503 171.313 116.37C165.175 116.288 159.104 117.658 153.596 120.37C117.244 137.911 140.377 199.014 153.419 225.524C145.369 226.713 139.294 227.648 131.2 227.885C129.804 217.094 129.179 215.973 118.302 212.299C104.931 205.562 123.502 198.421 118.715 188.798C114.474 180.273 101.847 180.101 105.219 169.885C108.589 165.358 115.103 168.043 118.384 160.621C124.203 147.456 110.424 146.202 108.456 141.618C108.831 131.728 114.391 134.97 121.215 132.702C132.002 129.118 125.001 117.772 129.135 110.229C133.974 100.969 141.144 113.071 148.226 110.493C157.487 107.123 152.906 99.4028 163.261 96.6763C189.87 94.6252 203.635 108.695 227.985 117.45L223.244 108.593C245.436 107.805 267.12 106.747 289.279 109.387C287.397 111.977 284.555 115.231 282.461 117.77Z" fill="white"/>
<path d="M85.552 111.822C93.5364 111.364 100.824 111.728 108.813 112.032C107.908 115.586 107.196 126.543 103.391 127.292C70.9384 133.672 46.8065 135.845 36.4713 173.434C27.5584 205.849 47.4826 235.235 66.5421 259.617C67.7025 261.101 67.4289 262.847 66.9847 264.463C62.0742 267.069 59.0529 264.943 55.6086 261.422C53.2438 258.883 47.5117 256.505 44.1641 254.895C38.4195 243.47 33.6348 247.42 24.9011 241.836C15.8812 236.069 20.5236 223.139 18.8656 215.562C17.2861 208.344 8.90068 203.934 7.42816 195.268C5.26458 182.534 12.5729 185.931 17.7429 178.857C22.0921 172.905 16.676 164.987 15.2074 159.209C14.5172 156.491 15.643 153.572 17.2515 151.179C20.5024 146.033 26.2195 146.238 31.7047 145.298C47.6359 142.572 35.046 124.692 49.5228 120.098C57.8901 117.442 61.6033 124.398 69.4643 123.536C75.0714 122.921 76.5297 118.434 79.3655 114.46C80.8081 112.463 83.32 112.182 85.552 111.822Z" fill="white"/>
<path d="M407.073 112.422C413.012 112.159 433.033 110.756 434.393 115.818C437.828 128.596 446.761 124.62 460.348 119.958C461.687 120.473 463.01 121.031 464.314 121.631C474.733 126.539 469.249 131.757 472.032 140.21C475.405 150.457 486.967 145.773 490.716 148.382C505.022 158.336 490.856 166.963 494.121 177.601C496.164 184.262 504.438 185.528 505.821 191.266C510.659 201.388 493.999 211.882 494.124 217.852C494.462 233.983 497.121 243.693 476.65 246.818C472.389 247.468 470.232 251.772 468.064 255.718C464.356 258.653 451.107 266.991 446.851 265.96C445.559 263.771 446.289 261.283 447.667 259.26C461.297 239.259 473.767 225.231 478.006 200.185C480.717 184.51 477.033 168.401 467.779 155.461C446.602 125.846 411.901 133.014 407.052 126.268C406.338 123.51 403.945 116.189 404.788 113.714C404.952 113.233 406.441 112.711 407.073 112.422Z" fill="white"/>
<path d="M227.72 23.119C232.535 25.8624 244.434 34.0268 249.598 31.5867C252.365 25.9233 240.063 9.26819 245.571 2.6961C249.145 -1.56847 265.945 -0.186757 269.197 2.79138C268.965 6.44493 262.545 28.1918 261.185 33.9238C269.489 30.7985 276.17 27.2302 284.044 23.2512C284.126 32.8522 284.037 42.4539 283.777 52.0516C277.048 49.454 268.105 44.0899 260.464 40.7926C260.473 41.1394 260.487 41.4853 260.505 41.8312C261.284 56.797 263.021 60.3364 274.288 69.9215C278.29 73.3257 288.365 82.2229 288.634 87.0839C285.582 89.0556 274.409 89.1146 270.191 89.3355C262.21 89.2553 244.639 88.9 237.447 89.9582C231.317 90.1862 227.013 91.1437 221.051 92.3277C229.309 62.268 247.949 78.123 251.915 41.0639C244.313 44.8501 235.745 49.4108 227.783 52.0366C226.496 39.751 226.201 35.2556 227.72 23.119Z" fill="white"/>
<path d="M242.789 140.587L244.286 141.038C245.241 142.602 244.071 147.702 244.325 150.989C244.824 157.449 250.736 163.253 257.596 162.067C266.737 160.486 265.856 147.67 269.524 141.913L270.489 142.758C274.73 156.01 274.484 170.55 272.888 184.272C272.571 189.5 271.499 196.281 270.814 201.587C261.099 201.008 250.75 201.272 241.03 201.535C238.154 184.556 236.38 156.842 242.789 140.587ZM257.519 193.222C261.784 192.493 265.317 189.508 266.749 185.427C268.181 181.344 267.287 176.806 264.413 173.572C261.54 170.339 257.139 168.917 252.917 169.859C246.61 171.266 242.576 177.445 243.825 183.785C245.074 190.126 251.15 194.313 257.519 193.222Z" fill="white" fill-opacity="0.988235"/>
<path d="M253.197 174.717C255.699 173.722 258.548 174.211 260.576 175.983C262.603 177.755 263.468 180.512 262.817 183.126C262.166 185.738 260.108 187.767 257.486 188.38C253.826 189.237 250.125 187.125 249 183.539C247.874 179.953 249.704 176.106 253.197 174.717Z" fill="white" fill-opacity="0.984314"/>
<path d="M263.909 91.6782C270.129 92.3551 287.981 93.2647 291.369 98.3026C289.067 107.466 226.277 106.584 221.309 100.326C221.595 93.4274 238.101 92.7702 243.695 92.1459C250.393 91.5587 257.182 91.6766 263.909 91.6782Z" fill="white"/>
<path d="M338.704 121.898C350.591 121.353 355.087 123.155 364.208 130.131C349.802 133.784 328.837 133.688 313.406 134.081L286.524 134.275C305.931 130.167 316.464 124.561 338.704 121.898Z" fill="white"/>
<path d="M167.846 121.046C180.431 121.189 212.471 130.732 226.618 134.255C220.785 133.953 214.452 134.012 208.575 133.954C199.999 133.82 153.043 134.807 150.814 128.291C153.472 123.472 162.911 121.683 167.846 121.046Z" fill="white"/>
<path d="M6.60446 162.877C16.0544 165.667 17.6991 174.911 8.7751 180.394C-2.10017 177.229 -2.917 168.761 6.60446 162.877Z" fill="white" fill-opacity="0.988235"/>
<path d="M254.181 142.63C256.77 142.018 259.486 142.85 261.287 144.806C263.088 146.762 263.694 149.537 262.872 152.065C262.05 154.595 259.928 156.483 257.321 157.006C253.384 157.795 249.541 155.283 248.684 151.36C247.828 147.438 250.274 143.553 254.181 142.63Z" fill="white" fill-opacity="0.988235"/>
<path d="M482.423 127.882C486.363 127.4 489.974 130.136 490.579 134.059C491.183 137.982 488.564 141.677 484.661 142.405C482.025 142.897 479.33 141.914 477.63 139.841C475.929 137.768 475.492 134.933 476.49 132.444C477.487 129.955 479.761 128.206 482.423 127.882Z" fill="white" fill-opacity="0.988235"/>
<path d="M365.124 92.3177C369.007 91.2021 373.057 93.4553 374.158 97.343C375.258 101.231 372.99 105.272 369.099 106.359C365.227 107.439 361.212 105.185 360.116 101.318C359.022 97.4515 361.26 93.427 365.124 92.3177Z" fill="white" fill-opacity="0.988235"/>
<path d="M503.256 165.947C513.489 167.01 514.792 176.091 506.891 182.31C496.159 182.43 496.992 172.25 503.256 165.947Z" fill="white" fill-opacity="0.988235"/>
<path d="M28.5205 126.027C28.9553 126.02 29.3909 126.026 29.8256 126.047C39.3801 126.512 38.7551 136.538 31.9066 142.147C21.533 140.521 21.2554 132.4 28.5205 126.027Z" fill="white" fill-opacity="0.988235"/>
<path d="M30.4335 249.553C34.2559 248.56 38.1625 250.841 39.1774 254.657C40.1932 258.474 37.9361 262.394 34.1254 263.431C30.2833 264.477 26.3233 262.197 25.2997 258.349C24.2761 254.501 26.5796 250.554 30.4335 249.553Z" fill="white" fill-opacity="0.988235"/>
<path d="M444.516 105.81C448.21 105.233 451.725 107.603 452.574 111.245C453.424 114.886 451.321 118.567 447.753 119.684C445.196 120.484 442.407 119.787 440.528 117.878C438.649 115.969 437.996 113.169 438.836 110.626C439.677 108.083 441.87 106.224 444.516 105.81Z" fill="white" fill-opacity="0.988235"/>
<path d="M143.949 90.5767C153.744 92.0979 154.814 101.281 147.07 107.123C136.823 105.728 137.075 96.6287 143.949 90.5767Z" fill="white" fill-opacity="0.988235"/>
<path d="M480.485 249.541C491.705 252.678 488.637 260.49 480.889 265.727C470.947 262.539 472.424 254.395 480.485 249.541Z" fill="white" fill-opacity="0.988235"/>
<path d="M389.82 219.668C393.318 218.117 397.415 219.634 399.06 223.089C400.705 226.545 399.299 230.681 395.889 232.419C393.601 233.585 390.859 233.417 388.73 231.979C386.601 230.542 385.42 228.061 385.647 225.502C385.873 222.943 387.471 220.709 389.82 219.668Z" fill="white" fill-opacity="0.988235"/>
<path d="M392.849 115.981C395.28 115.211 397.937 115.829 399.779 117.593C401.621 119.357 402.353 121.986 401.688 124.447C401.023 126.909 399.068 128.812 396.588 129.41C392.937 130.289 389.245 128.119 388.237 124.501C387.229 120.882 389.268 117.115 392.849 115.981Z" fill="white" fill-opacity="0.988235"/>
<path d="M403.072 149.84C406.836 149.015 410.555 151.403 411.369 155.17C412.184 158.937 409.784 162.648 406.016 163.452C402.262 164.254 398.568 161.866 397.756 158.114C396.945 154.363 399.323 150.662 403.072 149.84Z" fill="white" fill-opacity="0.988235"/>
<path d="M117.05 217.888C120.678 216.692 124.591 218.651 125.808 222.272C127.024 225.893 125.087 229.817 121.473 231.053C117.83 232.299 113.869 230.344 112.643 226.694C111.416 223.045 113.394 219.094 117.05 217.888Z" fill="white" fill-opacity="0.988235"/>
<path d="M66.9383 103.966C76.1689 106.626 76.1508 115.32 68.4548 120.509C66.4666 119.993 64.2488 119.052 62.9877 117.377C61.7707 115.781 61.2463 113.764 61.5325 111.777C62.0883 107.946 64.1182 106.121 66.9383 103.966Z" fill="white" fill-opacity="0.988235"/>
<path d="M501.621 213.9C501.951 213.904 502.281 213.913 502.611 213.926C512.205 214.339 513.03 223.36 505.94 229.222C496.63 227.621 495.79 220.306 501.621 213.9Z" fill="white" fill-opacity="0.988235"/>
<path d="M115.697 115.154C119.337 114.244 123.028 116.445 123.958 120.08C124.888 123.714 122.707 127.417 119.077 128.367C115.42 129.323 111.682 127.121 110.746 123.459C109.809 119.797 112.03 116.071 115.697 115.154Z" fill="white" fill-opacity="0.984314"/>
<path d="M104.899 149.619C107.218 148.571 109.928 148.904 111.925 150.482C113.921 152.061 114.871 154.621 114.386 157.119C113.902 159.618 112.064 161.638 109.622 162.355C106.191 163.365 102.562 161.545 101.319 158.191C100.075 154.836 101.639 151.092 104.899 149.619Z" fill="white" fill-opacity="0.988235"/>
<path d="M105.405 185.089C115.453 185.567 115.204 193.998 108.254 199.809C99.2698 199.993 97.8688 190.755 105.405 185.089Z" fill="white" fill-opacity="0.988235"/>
<path d="M6.54258 211.799C16.5027 212.535 16.2213 219.803 11.3242 226.468C1.38758 228.087 0.490545 218.157 6.54258 211.799Z" fill="white" fill-opacity="0.988235"/>
<path d="M403.085 185.859C412.184 188.176 412.271 195.017 405.357 200.331C396.91 198.218 397.354 191.004 403.085 185.859Z" fill="white" fill-opacity="0.988235"/>
<path d="M237.446 89.9584C244.638 88.9002 262.209 89.2555 270.19 89.3357L269.948 89.4159C266.454 90.548 264.327 90.3853 260.681 90.3766L260.8 90.7996L263.908 91.6785C257.181 91.677 250.392 91.559 243.694 92.1463C241.36 89.897 241.083 90.467 237.446 89.9584Z" fill="white" fill-opacity="0.0823529"/>
</svg>
